<svg width="255" height="31" viewBox="0 0 255 31" fill="none" xmlns="http://www.w3.org/2000/svg">
<path fill-rule="evenodd" clip-rule="evenodd" d="M22.5286 28.1218L17.3607 22.5701L14.8684 25.4483L20.0364 31L22.5286 28.1218ZM18.9568 8.29291L11.2371 0L3.55837 8.29291H9.22506V18.0642L0 28.1303L2.74473 30.9916L13.1512 19.7363V8.29291H18.9568ZM93.9494 16.0212V17.8157C93.9494 21.5334 91.6706 23.9029 88.1042 23.9029C84.2321 23.9029 81.8236 21.0278 81.8236 16.388C81.8236 11.8077 84.2599 8.88304 88.0672 8.88304C91.1519 8.88304 93.4122 10.7667 93.8383 13.6914H91.4576C90.9759 12.0655 89.7809 11.1633 88.0672 11.1633C85.7328 11.1633 84.2692 13.156 84.2692 16.3682C84.2692 19.62 85.7606 21.6227 88.1413 21.6227C90.1792 21.6227 91.5687 20.2942 91.6058 18.3213L91.6151 18.0238H88.4007V16.0212H93.9494ZM54.58 9.23995V23.546H52.3567V13.4832H52.2271L48.531 23.0503H46.8265L43.1304 13.4832H43.0007V23.546H40.7775V9.23995H43.575L47.5954 19.7291H47.7621L51.7824 9.23995H54.58ZM60.2677 21.3352H66.5298V23.546H57.8777V9.23995H66.5298V11.4508H60.2677V15.2479H66.187V17.3299H60.2677V21.3352ZM71.884 11.3616H74.5889C76.1081 11.3616 77.0345 12.2737 77.0345 13.7608C77.0345 15.2776 76.1637 16.1501 74.6445 16.1501H71.884V11.3616ZM71.884 18.1825H74.5333L77.1549 23.546H79.8876L76.9696 17.7859C78.5629 17.1712 79.4893 15.5949 79.4893 13.7112C79.4893 10.965 77.7292 9.23995 74.9224 9.23995H69.494V23.546H71.884V18.1825ZM105.38 21.3352H99.1184V17.3299H105.038V15.2479H99.1184V11.4508H105.38V9.23995H96.7285V23.546H105.38V21.3352ZM113.403 23.546V9.23995H118.414C122.388 9.23995 124.704 11.8374 124.704 16.3285C124.704 20.9188 122.416 23.546 118.414 23.546H113.403ZM118.099 11.4508H115.793V21.3352H118.099C120.758 21.3352 122.268 19.5605 122.268 16.3682C122.268 13.2453 120.721 11.4508 118.099 11.4508ZM136.098 21.3352H129.836V17.3299H135.755V15.2479H129.836V11.4508H136.098V9.23995H127.446V23.546H136.098V21.3352ZM150.113 9.23995L145.491 23.546H142.74L138.071 9.23995H140.711L144.074 20.5619H144.231L147.566 9.23995H150.113ZM161.072 21.3352H154.81V17.3299H160.729V15.2479H154.81V11.4508H161.072V9.23995H152.42V23.546H161.072V21.3352ZM166.426 21.3054H172.559V23.546H164.036V9.23995H166.426V21.3054ZM180.451 8.88304C176.57 8.88304 174.124 11.768 174.124 16.388C174.124 21.008 176.533 23.9029 180.451 23.9029C184.351 23.9029 186.769 20.9981 186.769 16.388C186.769 11.768 184.342 8.88304 180.451 8.88304ZM180.451 11.1534C182.823 11.1534 184.332 13.1858 184.332 16.388C184.332 19.5804 182.832 21.6326 180.451 21.6326C178.043 21.6326 176.57 19.5804 176.57 16.388C176.57 13.1858 178.08 11.1534 180.451 11.1534ZM189.511 23.546V9.23995H194.902C197.57 9.23995 199.395 11.193 199.395 14.078C199.395 16.9135 197.505 18.8566 194.8 18.8566H191.901V23.546H189.511ZM194.272 11.3814H191.901V16.735H194.263C195.967 16.735 196.968 15.7833 196.968 14.078C196.968 12.3232 195.995 11.3814 194.272 11.3814ZM215.837 23.546V9.23995H213.04L209.019 19.7291H208.853L204.832 9.23995H202.035V23.546H204.258V13.4832H204.388L208.084 23.0503H209.788L213.484 13.4832H213.614V23.546H215.837ZM221.525 21.3352H227.787V23.546H219.135V9.23995H227.787V11.4508H221.525V15.2479H227.444V17.3299H221.525V21.3352ZM233.058 23.546V13.8104H233.215L239.774 23.546H241.84V9.23995H239.542V18.9657H239.385L232.826 9.23995H230.751V23.546H233.058ZM250.862 11.4508V23.546H248.472V11.4508H244.359V9.23995H254.984V11.4508H250.862Z" fill="black"/>
</svg>
